{
  "source": "C:\\Users\\Peter\\Desktop\\stuff\\MIUN\\quantitative_research\\video_compression\\videos\\BVI-HD\\BVI-HD_CDVL_videos\\ORIG\\PlasmaSlowRandom_1920x1080_60fps.mp4",
  "output": "C:\\Users\\Peter\\Desktop\\stuff\\MIUN\\quantitative_research\\video_compression\\compressed_videos\\BVI-HD\\hevc\\2\\PlasmaSlowRandom_1920x1080_60fps_hevc.mp4",
  "codec": "hevc",
  "ok": "Input #0, mov,mp4,m4a,3gp,3g2,mj2, from 'C:\\Users\\Peter\\Desktop\\stuff\\MIUN\\quantitative_research\\video_compression\\videos\\BVI-HD\\BVI-HD_CDVL_videos\\ORIG\\PlasmaSlowRandom_1920x1080_60fps.mp4':\n  Metadata:\n    major_brand     : isom\n    minor_version   : 512\n    compatible_brands: isomiso2avc1mp41\n    encoder         : Lavf54.28.101\n  Duration: 00:00:05.00, start: 0.000000, bitrate: 23030 kb/s\n  Stream #0:0[0x1](und): Video: h264 (High 4:4:4 Predictive) (avc1 / 0x31637661), yuv420p(progressive), 1920x1080, 23026 kb/s, 60 fps, 60 tbr, 60 tbn (default)\n    Metadata:\n      handler_name    : VideoHandler\n      vendor_id       : [0][0][0][0]\n[out#0/mp4 @ 0000018020161000] Codec AVOption b:a (set bitrate (in bits/s)) has not been used for any stream. The most likely reason is either wrong type (e.g. a video option with no video streams) or that it is a private option of some decoder which was not actually used for any stream.\nStream mapping:\n  Stream #0:0 -> #0:0 (h264 (native) -> hevc (libx265))\nPress [q] to stop, [?] for help\n[libx265 @ 000001802080d540] Unknown option: \"aq-mode.\nx265 [info]: HEVC encoder version 4.1+190-8f11c33ac\nx265 [info]: build info [Windows][GCC 15.1.0][64 bit] 10bit\nx265 [info]: using cpu capabilities: MMX2 SSE2Fast LZCNT SSSE3 SSE4.2 AVX FMA3 BMI2 AVX2\nx265 [info]: Main 10 profile, Level-4.1 (Main tier)\nx265 [info]: Thread pool created using 12 threads\nx265 [info]: Slices                              : 1\nx265 [info]: frame threads / pool features       : 3 / wpp(17 rows)\nx265 [info]: Coding QT: max CU size, min CU size : 64 / 8\nx265 [info]: Residual QT: max TU size, max depth : 32 / 1 inter / 1 intra\nx265 [info]: ME / range / subpel / merge         : star / 57 / 3 / 3\nx265 [info]: Keyframe min / max / scenecut / bias  : 25 / 250 / 40 / 5.00 \nx265 [info]: Lookahead / bframes / badapt        : 25 / 4 / 2\nx265 [info]: b-pyramid / weightp / weightb       : 1 / 1 / 0\nx265 [info]: References / ref-limit  cu / depth  : 4 / on / on\nx265 [info]: AQ: mode / str / qg-size / cu-tree  : 2 / 1.0 / 32 / 1\nx265 [info]: Rate Control / qCompress            : ABR-2000 kbps / 0.60\nx265 [info]: VBV/HRD buffer / max-rate / init    : 2000 / 2000 / 0.750\nx265 [info]: tools: rect limit-modes rd=4 psy-rd=2.00 rdoq=2 psy-rdoq=1.00\nx265 [info]: tools: rskip mode=1 signhide tmvp strong-intra-smoothing lslices=4\nx265 [info]: tools: deblock sao dhdr10-info\nOutput #0, mp4, to 'C:\\Users\\Peter\\Desktop\\stuff\\MIUN\\quantitative_research\\video_compression\\compressed_videos\\BVI-HD\\hevc\\2\\PlasmaSlowRandom_1920x1080_60fps_hevc.mp4':\n  Metadata:\n    major_brand     : isom\n    minor_version   : 512\n    compatible_brands: isomiso2avc1mp41\n    encoder         : Lavf62.3.100\n  Stream #0:0(und): Video: hevc (hev1 / 0x31766568), yuv420p10le(tv, progressive), 1920x1080, q=2-31, 2000 kb/s, 60 fps, 15360 tbn (default)\n    Metadata:\n      encoder         : Lavc62.11.100 libx265\n      handler_name    : VideoHandler\n      vendor_id       : [0][0][0][0]\n    Side data:\n      cpb: bitrate max/min/avg: 2000000/0/2000000 buffer size: 2000000 vbv_delay: N/A\nframe=    0 fps=0.0 q=0.0 size=       0KiB time=N/A bitrate=N/A speed=N/A elapsed=0:00:00.52    \nframe=    0 fps=0.0 q=0.0 size=       0KiB time=N/A bitrate=N/A speed=N/A elapsed=0:00:01.03    \nframe=    0 fps=0.0 q=0.0 size=       0KiB time=N/A bitrate=N/A speed=N/A elapsed=0:00:01.54    \nframe=    0 fps=0.0 q=0.0 size=       0KiB time=N/A bitrate=N/A speed=N/A elapsed=0:00:02.06    \nframe=    0 fps=0.0 q=0.0 size=       0KiB time=N/A bitrate=N/A speed=N/A elapsed=0:00:02.57    \nframe=    0 fps=0.0 q=0.0 size=       0KiB time=N/A bitrate=N/A speed=N/A elapsed=0:00:03.09    \nframe=    1 fps=0.3 q=41.4 size=       0KiB time=-00:00:00.01 bitrate=N/A speed=N/A elapsed=0:00:03.60    \nframe=    3 fps=0.7 q=39.6 size=       0KiB time=00:00:00.01 bitrate=  21.1kbits/s speed=0.00404x elapsed=0:00:04.12    \nframe=    3 fps=0.6 q=39.6 size=       0KiB time=00:00:00.01 bitrate=  21.1kbits/s speed=0.00359x elapsed=0:00:04.64    \nframe=    4 fps=0.8 q=39.4 size=       0KiB time=00:00:00.03 bitrate=  10.6kbits/s speed=0.00647x elapsed=0:00:05.15    \nframe=    5 fps=0.9 q=39.5 size=       0KiB time=00:00:00.05 bitrate=   7.0kbits/s speed=0.00881x elapsed=0:00:05.67    \nframe=    7 fps=1.1 q=37.6 size=       0KiB time=00:00:00.08 bitrate=   4.2kbits/s speed=0.0135x elapsed=0:00:06.19    \nframe=    7 fps=1.0 q=37.6 size=       0KiB time=00:00:00.08 bitrate=   4.2kbits/s speed=0.0124x elapsed=0:00:06.71    \nframe=    9 fps=1.2 q=36.7 size=       0KiB time=00:00:00.11 bitrate=   3.0kbits/s speed=0.0161x elapsed=0:00:07.23    \nframe=   10 fps=1.3 q=34.4 size=       0KiB time=00:00:00.13 bitrate=   2.6kbits/s speed=0.0172x elapsed=0:00:07.75    \nframe=   11 fps=1.3 q=32.8 size=       0KiB time=00:00:00.15 bitrate=   2.3kbits/s speed=0.0181x elapsed=0:00:08.27    \nframe=   12 fps=1.4 q=32.7 size=       0KiB time=00:00:00.16 bitrate=   2.1kbits/s speed=0.019x elapsed=0:00:08.78    \nframe=   13 fps=1.4 q=26.7 size=       0KiB time=00:00:00.18 bitrate=   1.9kbits/s speed=0.0197x elapsed=0:00:09.32    \nframe=   15 fps=1.5 q=32.8 size=       0KiB time=00:00:00.21 bitrate=   1.6kbits/s speed=0.022x elapsed=0:00:09.85    \nframe=   15 fps=1.4 q=32.8 size=       0KiB time=00:00:00.21 bitrate=   1.6kbits/s speed=0.0209x elapsed=0:00:10.37    \nframe=   16 fps=1.5 q=31.5 size=       0KiB time=00:00:00.23 bitrate=   1.5kbits/s speed=0.0214x elapsed=0:00:10.89    \nframe=   18 fps=1.6 q=31.0 size=       0KiB time=00:00:00.26 bitrate=   1.3kbits/s speed=0.0234x elapsed=0:00:11.41    \nframe=   19 fps=1.6 q=31.6 size=       0KiB time=00:00:00.28 bitrate=   1.2kbits/s speed=0.0238x elapsed=0:00:11.91    \nframe=   20 fps=1.6 q=31.3 size=       0KiB time=00:00:00.30 bitrate=   1.2kbits/s speed=0.0241x elapsed=0:00:12.43    \nframe=   21 fps=1.6 q=28.1 size=       0KiB time=00:00:00.31 bitrate=   1.1kbits/s speed=0.0244x elapsed=0:00:12.95    \nframe=   22 fps=1.6 q=30.2 size=       0KiB time=00:00:00.33 bitrate=   1.1kbits/s speed=0.0247x elapsed=0:00:13.47    \nframe=   24 fps=1.7 q=29.6 size=       0KiB time=00:00:00.36 bitrate=   1.0kbits/s speed=0.0262x elapsed=0:00:14.00    \nframe=   25 fps=1.7 q=29.5 size=       0KiB time=00:00:00.38 bitrate=   0.9kbits/s speed=0.0264x elapsed=0:00:14.51    \nframe=   26 fps=1.7 q=27.4 size=       0KiB time=00:00:00.40 bitrate=   0.9kbits/s speed=0.0266x elapsed=0:00:15.05    \nframe=   28 fps=1.8 q=27.3 size=       0KiB time=00:00:00.43 bitrate=   0.8kbits/s speed=0.0278x elapsed=0:00:15.57    \nframe=   30 fps=1.9 q=30.2 size=       0KiB time=00:00:00.46 bitrate=   0.8kbits/s speed=0.029x elapsed=0:00:16.10    \nframe=   31 fps=1.9 q=29.4 size=       0KiB time=00:00:00.48 bitrate=   0.7kbits/s speed=0.0291x elapsed=0:00:16.61    \nframe=   33 fps=1.9 q=27.1 size=       0KiB time=00:00:00.51 bitrate=   0.7kbits/s speed=0.0301x elapsed=0:00:17.15    \nframe=   35 fps=2.0 q=30.3 size=       0KiB time=00:00:00.55 bitrate=   0.6kbits/s speed=0.0311x elapsed=0:00:17.68    \nframe=   37 fps=2.0 q=27.1 size=       0KiB time=00:00:00.58 bitrate=   0.6kbits/s speed=0.0321x elapsed=0:00:18.19    \nframe=   37 fps=2.0 q=27.1 size=       0KiB time=00:00:00.58 bitrate=   0.6kbits/s speed=0.0311x elapsed=0:00:18.73    \nframe=   38 fps=2.0 q=29.4 size=       0KiB time=00:00:00.60 bitrate=   0.6kbits/s speed=0.0312x elapsed=0:00:19.25    \nframe=   41 fps=2.1 q=30.4 size=       0KiB time=00:00:00.65 bitrate=   0.5kbits/s speed=0.0329x elapsed=0:00:19.77    \nframe=   42 fps=2.1 q=30.5 size=       0KiB time=00:00:00.66 bitrate=   0.5kbits/s speed=0.0328x elapsed=0:00:20.30    \nframe=   43 fps=2.1 q=30.4 size=       0KiB time=00:00:00.68 bitrate=   0.5kbits/s speed=0.0328x elapsed=0:00:20.85    \nframe=   45 fps=2.1 q=29.1 size=       0KiB time=00:00:00.71 bitrate=   0.5kbits/s speed=0.0335x elapsed=0:00:21.36    \nframe=   45 fps=2.1 q=29.1 size=       0KiB time=00:00:00.71 bitrate=   0.5kbits/s speed=0.0327x elapsed=0:00:21.89    \nframe=   46 fps=2.1 q=30.4 size=       0KiB time=00:00:00.73 bitrate=   0.5kbits/s speed=0.0327x elapsed=0:00:22.43    \nframe=   48 fps=2.1 q=29.5 size=       0KiB time=00:00:00.76 bitrate=   0.5kbits/s speed=0.0334x elapsed=0:00:22.97    \nframe=   50 fps=2.1 q=30.6 size=       0KiB time=00:00:00.80 bitrate=   0.4kbits/s speed=0.0341x elapsed=0:00:23.49    \nframe=   52 fps=2.2 q=28.3 size=       0KiB time=00:00:00.83 bitrate=   0.4kbits/s speed=0.0347x elapsed=0:00:24.01    \nframe=   54 fps=2.2 q=30.6 size=       0KiB time=00:00:00.86 bitrate=   0.4kbits/s speed=0.0353x elapsed=0:00:24.53    \nframe=   55 fps=2.2 q=30.6 size=       0KiB time=00:00:00.88 bitrate=   0.4kbits/s speed=0.0353x elapsed=0:00:25.05    \nframe=   57 fps=2.2 q=28.5 size=       0KiB time=00:00:00.91 bitrate=   0.4kbits/s speed=0.0359x elapsed=0:00:25.55    \nframe=   59 fps=2.3 q=30.6 size=       0KiB time=00:00:00.95 bitrate=   0.4kbits/s speed=0.0364x elapsed=0:00:26.08    \nframe=   60 fps=2.3 q=30.6 size=       0KiB time=00:00:00.96 bitrate=   0.4kbits/s speed=0.0364x elapsed=0:00:26.59    \nframe=   63 fps=2.3 q=29.5 size=       0KiB time=00:00:01.01 bitrate=   0.3kbits/s speed=0.0375x elapsed=0:00:27.10    \nframe=   64 fps=2.3 q=30.7 size=       0KiB time=00:00:01.03 bitrate=   0.3kbits/s speed=0.0374x elapsed=0:00:27.62    \nframe=   66 fps=2.3 q=30.6 size=       0KiB time=00:00:01.06 bitrate=   0.3kbits/s speed=0.0379x elapsed=0:00:28.14    \nframe=   67 fps=2.3 q=30.7 size=       0KiB time=00:00:01.08 bitrate=   0.3kbits/s speed=0.0378x elapsed=0:00:28.65    \nframe=   68 fps=2.3 q=31.6 size=     256KiB time=00:00:01.10 bitrate=1906.8kbits/s speed=0.0377x elapsed=0:00:29.18    \nframe=   70 fps=2.4 q=29.3 size=     256KiB time=00:00:01.13 bitrate=1850.7kbits/s speed=0.0382x elapsed=0:00:29.69    \nframe=   71 fps=2.3 q=30.3 size=     256KiB time=00:00:01.15 bitrate=1823.9kbits/s speed=0.0381x elapsed=0:00:30.21    \nframe=   72 fps=2.3 q=31.6 size=     256KiB time=00:00:01.16 bitrate=1797.9kbits/s speed=0.038x elapsed=0:00:30.74    \nframe=   74 fps=2.4 q=31.6 size=     256KiB time=00:00:01.20 bitrate=1747.9kbits/s speed=0.0384x elapsed=0:00:31.24    \nframe=   75 fps=2.4 q=28.2 size=     256KiB time=00:00:01.21 bitrate=1724.0kbits/s speed=0.0383x elapsed=0:00:31.77    \nframe=   76 fps=2.4 q=30.3 size=     256KiB time=00:00:01.23 bitrate=1700.7kbits/s speed=0.0381x elapsed=0:00:32.32    \nframe=   77 fps=2.3 q=31.6 size=     256KiB time=00:00:01.25 bitrate=1678.0kbits/s speed=0.0381x elapsed=0:00:32.84    \nframe=   79 fps=2.4 q=31.6 size=     256KiB time=00:00:01.28 bitrate=1634.4kbits/s speed=0.0385x elapsed=0:00:33.36    \nframe=   80 fps=2.4 q=29.1 size=     256KiB time=00:00:01.30 bitrate=1613.5kbits/s speed=0.0384x elapsed=0:00:33.88    \nframe=   81 fps=2.4 q=30.4 size=     256KiB time=00:00:01.31 bitrate=1593.0kbits/s speed=0.0383x elapsed=0:00:34.40    \nframe=   82 fps=2.3 q=31.6 size=     256KiB time=00:00:01.33 bitrate=1573.1kbits/s speed=0.0382x elapsed=0:00:34.92    \nframe=   84 fps=2.4 q=30.5 size=     256KiB time=00:00:01.36 bitrate=1534.8kbits/s speed=0.0386x elapsed=0:00:35.43    \nframe=   85 fps=2.4 q=31.6 size=     256KiB time=00:00:01.38 bitrate=1516.3kbits/s speed=0.0385x elapsed=0:00:35.95    \nframe=   86 fps=2.4 q=31.5 size=     256KiB time=00:00:01.40 bitrate=1498.2kbits/s speed=0.0384x elapsed=0:00:36.47    \nframe=   87 fps=2.4 q=31.6 size=     256KiB time=00:00:01.41 bitrate=1480.6kbits/s speed=0.0383x elapsed=0:00:37.00    \nframe=   88 fps=2.3 q=28.8 size=     256KiB time=00:00:01.43 bitrate=1463.4kbits/s speed=0.0382x elapsed=0:00:37.52    \nframe=   89 fps=2.3 q=30.4 size=     256KiB time=00:00:01.45 bitrate=1446.6kbits/s speed=0.0381x elapsed=0:00:38.05    \nframe=   90 fps=2.3 q=31.5 size=     256KiB time=00:00:01.46 bitrate=1430.1kbits/s speed=0.038x elapsed=0:00:38.56    \nframe=   91 fps=2.3 q=29.7 size=     256KiB time=00:00:01.48 bitrate=1414.0kbits/s speed=0.038x elapsed=0:00:39.08    \nframe=   92 fps=2.3 q=31.3 size=     256KiB time=00:00:01.50 bitrate=1398.3kbits/s speed=0.0379x elapsed=0:00:39.60    \nframe=   93 fps=2.3 q=31.5 size=     256KiB time=00:00:01.51 bitrate=1383.0kbits/s speed=0.0378x elapsed=0:00:40.13    \nframe=   93 fps=2.3 q=31.5 size=     256KiB time=00:00:01.51 bitrate=1383.0kbits/s speed=0.0373x elapsed=0:00:40.64    \nframe=   94 fps=2.3 q=31.5 size=     256KiB time=00:00:01.53 bitrate=1367.9kbits/s speed=0.0372x elapsed=0:00:41.16    \nframe=   95 fps=2.3 q=32.3 size=     256KiB time=00:00:01.55 bitrate=1353.2kbits/s speed=0.0372x elapsed=0:00:41.68    \nframe=   97 fps=2.3 q=29.8 size=     256KiB time=00:00:01.58 bitrate=1324.7kbits/s speed=0.0375x elapsed=0:00:42.20    \nframe=   98 fps=2.3 q=32.3 size=     256KiB time=00:00:01.60 bitrate=1310.9kbits/s speed=0.0375x elapsed=0:00:42.71    \nframe=   98 fps=2.3 q=32.3 size=     256KiB time=00:00:01.60 bitrate=1310.9kbits/s speed=0.037x elapsed=0:00:43.23    \nframe=   99 fps=2.3 q=31.5 size=     256KiB time=00:00:01.61 bitrate=1297.4kbits/s speed=0.0369x elapsed=0:00:43.76    \nframe=  100 fps=2.3 q=31.4 size=     256KiB time=00:00:01.63 bitrate=1284.2kbits/s speed=0.0369x elapsed=0:00:44.29    \nframe=  102 fps=2.3 q=30.1 size=     256KiB time=00:00:01.66 bitrate=1258.5kbits/s speed=0.0372x elapsed=0:00:44.81    \nframe=  103 fps=2.3 q=31.4 size=     256KiB time=00:00:01.68 bitrate=1246.0kbits/s speed=0.0371x elapsed=0:00:45.33    \nframe=  103 fps=2.2 q=31.4 size=     256KiB time=00:00:01.68 bitrate=1246.0kbits/s speed=0.0367x elapsed=0:00:45.84    \nframe=  104 fps=2.2 q=31.3 size=     256KiB time=00:00:01.70 bitrate=1233.8kbits/s speed=0.0367x elapsed=0:00:46.38    \nframe=  105 fps=2.2 q=31.3 size=     256KiB time=00:00:01.71 bitrate=1221.8kbits/s speed=0.0366x elapsed=0:00:46.90    \nframe=  105 fps=2.2 q=31.3 size=     256KiB time=00:00:01.71 bitrate=1221.8kbits/s speed=0.0362x elapsed=0:00:47.42    \nframe=  107 fps=2.2 q=29.9 size=     256KiB time=00:00:01.75 bitrate=1198.6kbits/s speed=0.0365x elapsed=0:00:47.94    \nframe=  107 fps=2.2 q=29.9 size=     256KiB time=00:00:01.75 bitrate=1198.6kbits/s speed=0.0361x elapsed=0:00:48.46    \nframe=  108 fps=2.2 q=31.4 size=     256KiB time=00:00:01.76 bitrate=1187.3kbits/s speed=0.0361x elapsed=0:00:48.98    \nframe=  111 fps=2.2 q=32.2 size=     256KiB time=00:00:01.81 bitrate=1154.6kbits/s speed=0.0367x elapsed=0:00:49.50    \nframe=  112 fps=2.2 q=32.2 size=     256KiB time=00:00:01.83 bitrate=1144.1kbits/s speed=0.0366x elapsed=0:00:50.02    \nframe=  112 fps=2.2 q=32.2 size=     256KiB time=00:00:01.83 bitrate=1144.1kbits/s speed=0.0363x elapsed=0:00:50.54    \nframe=  113 fps=2.2 q=32.4 size=     256KiB time=00:00:01.85 bitrate=1133.8kbits/s speed=0.0362x elapsed=0:00:51.06    \nframe=  115 fps=2.2 q=30.1 size=     256KiB time=00:00:01.88 bitrate=1113.7kbits/s speed=0.0365x elapsed=0:00:51.58    \nframe=  115 fps=2.2 q=30.1 size=     256KiB time=00:00:01.88 bitrate=1113.7kbits/s speed=0.0362x elapsed=0:00:52.09    \nframe=  116 fps=2.2 q=32.2 size=     256KiB time=00:00:01.90 bitrate=1103.9kbits/s speed=0.0361x elapsed=0:00:52.63    \nframe=  117 fps=2.2 q=28.9 size=     256KiB time=00:00:01.91 bitrate=1094.3kbits/s speed=0.0361x elapsed=0:00:53.15    \nframe=  121 fps=2.3 q=28.6 size=     256KiB time=00:00:01.98 bitrate=1057.6kbits/s speed=0.037x elapsed=0:00:53.67    \nframe=  121 fps=2.2 q=28.6 size=     256KiB time=00:00:01.98 bitrate=1057.6kbits/s speed=0.0366x elapsed=0:00:54.19    \nframe=  124 fps=2.3 q=30.2 size=     256KiB time=00:00:02.03 bitrate=1031.6kbits/s speed=0.0372x elapsed=0:00:54.72    \nframe=  124 fps=2.2 q=30.2 size=     256KiB time=00:00:02.03 bitrate=1031.6kbits/s speed=0.0368x elapsed=0:00:55.25    \nframe=  125 fps=2.2 q=32.2 size=     256KiB time=00:00:02.05 bitrate=1023.2kbits/s speed=0.0367x elapsed=0:00:55.78    \nframe=  127 fps=2.3 q=28.5 size=     256KiB time=00:00:02.08 bitrate=1006.8kbits/s speed=0.037x elapsed=0:00:56.30    \nframe=  128 fps=2.3 q=30.5 size=     512KiB time=00:00:02.10 bitrate=1997.5kbits/s speed=0.037x elapsed=0:00:56.82    \nframe=  131 fps=2.3 q=32.3 size=     512KiB time=00:00:02.15 bitrate=1951.0kbits/s speed=0.0375x elapsed=0:00:57.34    \nframe=  132 fps=2.3 q=28.9 size=     512KiB time=00:00:02.16 bitrate=1936.0kbits/s speed=0.0374x elapsed=0:00:57.87    \nframe=  136 fps=2.3 q=32.2 size=     512KiB time=00:00:02.23 bitrate=1878.2kbits/s speed=0.0382x elapsed=0:00:58.39    \nframe=  137 fps=2.3 q=29.4 size=     512KiB time=00:00:02.25 bitrate=1864.3kbits/s speed=0.0382x elapsed=0:00:58.91    \nframe=  138 fps=2.3 q=30.9 size=     512KiB time=00:00:02.26 bitrate=1850.6kbits/s speed=0.0381x elapsed=0:00:59.42    \nframe=  141 fps=2.4 q=32.2 size=     512KiB time=00:00:02.31 bitrate=1810.6kbits/s speed=0.0386x elapsed=0:00:59.95    \nframe=  142 fps=2.3 q=28.2 size=     512KiB time=00:00:02.33 bitrate=1797.7kbits/s speed=0.0386x elapsed=0:01:00.47    \nframe=  143 fps=2.3 q=30.9 size=     512KiB time=00:00:02.35 bitrate=1785.0kbits/s speed=0.0385x elapsed=0:01:00.99    \nframe=  145 fps=2.4 q=32.2 size=     512KiB time=00:00:02.38 bitrate=1760.0kbits/s speed=0.0387x elapsed=0:01:01.53    \nframe=  146 fps=2.4 q=28.0 size=     512KiB time=00:00:02.40 bitrate=1747.8kbits/s speed=0.0387x elapsed=0:01:02.05    \nframe=  147 fps=2.3 q=30.6 size=     512KiB time=00:00:02.41 bitrate=1735.7kbits/s speed=0.0386x elapsed=0:01:02.59    \nframe=  150 fps=2.4 q=32.2 size=     512KiB time=00:00:02.46 bitrate=1700.5kbits/s speed=0.0391x elapsed=0:01:03.12    \nframe=  151 fps=2.4 q=28.3 size=     512KiB time=00:00:02.48 bitrate=1689.1kbits/s speed=0.039x elapsed=0:01:03.64    \nframe=  152 fps=2.4 q=30.7 size=     512KiB time=00:00:02.50 bitrate=1677.9kbits/s speed=0.039x elapsed=0:01:04.15    \nframe=  155 fps=2.4 q=28.4 size=     512KiB time=00:00:02.55 bitrate=1645.0kbits/s speed=0.0394x elapsed=0:01:04.67    \nframe=  156 fps=2.4 q=30.9 size=     512KiB time=00:00:02.56 bitrate=1634.3kbits/s speed=0.0394x elapsed=0:01:05.18    \nframe=  157 fps=2.4 q=32.1 size=     512KiB time=00:00:02.58 bitrate=1623.7kbits/s speed=0.0393x elapsed=0:01:05.71    \nframe=  159 fps=2.4 q=30.8 size=     512KiB time=00:00:02.61 bitrate=1603.1kbits/s speed=0.0395x elapsed=0:01:06.25    \nframe=  159 fps=2.4 q=30.8 size=     512KiB time=00:00:02.61 bitrate=1603.1kbits/s speed=0.0392x elapsed=0:01:06.77    \nframe=  162 fps=2.4 q=28.7 size=     512KiB time=00:00:02.66 bitrate=1573.0kbits/s speed=0.0396x elapsed=0:01:07.28    \nframe=  163 fps=2.4 q=30.0 size=     512KiB time=00:00:02.68 bitrate=1563.2kbits/s speed=0.0396x elapsed=0:01:07.80    \nframe=  165 fps=2.4 q=32.0 size=     512KiB time=00:00:02.71 bitrate=1544.0kbits/s speed=0.0398x elapsed=0:01:08.32    \nframe=  167 fps=2.4 q=32.0 size=     512KiB time=00:00:02.75 bitrate=1525.3kbits/s speed=0.0399x elapsed=0:01:08.87    \nframe=  168 fps=2.4 q=28.4 size=     512KiB time=00:00:02.76 bitrate=1516.1kbits/s speed=0.0399x elapsed=0:01:09.40    \nframe=  168 fps=2.4 q=28.4 size=     512KiB time=00:00:02.76 bitrate=1516.1kbits/s speed=0.0396x elapsed=0:01:09.92    \nframe=  171 fps=2.4 q=32.0 size=     512KiB time=00:00:02.81 bitrate=1489.2kbits/s speed=0.04x elapsed=0:01:10.44    \nframe=  173 fps=2.4 q=28.7 size=     512KiB time=00:00:02.83 bitrate=1480.5kbits/s speed=0.0399x elapsed=0:01:10.95    \nframe=  174 fps=2.4 q=29.8 size=     512KiB time=00:00:02.86 bitrate=1463.3kbits/s speed=0.0401x elapsed=0:01:11.48    \nframe=  175 fps=2.4 q=32.0 size=     512KiB time=00:00:02.88 bitrate=1454.8kbits/s speed=0.04x elapsed=0:01:12.00    \nframe=  176 fps=2.4 q=32.0 size=     512KiB time=00:00:02.90 bitrate=1446.4kbits/s speed=0.04x elapsed=0:01:12.51    \nframe=  177 fps=2.4 q=28.9 size=     512KiB time=00:00:02.91 bitrate=1438.2kbits/s speed=0.0399x elapsed=0:01:13.03    \nframe=  179 fps=2.4 q=32.1 size=     512KiB time=00:00:02.95 bitrate=1421.9kbits/s speed=0.0401x elapsed=0:01:13.57    \nframe=  180 fps=2.4 q=32.1 size=     512KiB time=00:00:02.96 bitrate=1413.9kbits/s speed=0.04x elapsed=0:01:14.09    \nframe=  181 fps=2.4 q=29.0 size=     512KiB time=00:00:02.98 bitrate=1406.0kbits/s speed=0.04x elapsed=0:01:14.62    \nframe=  184 fps=2.4 q=32.0 size=     512KiB time=00:00:03.03 bitrate=1382.9kbits/s speed=0.0404x elapsed=0:01:15.15    \nframe=  184 fps=2.4 q=32.0 size=     512KiB time=00:00:03.03 bitrate=1382.9kbits/s speed=0.0401x elapsed=0:01:15.68    \nframe=  187 fps=2.5 q=30.3 size=     512KiB time=00:00:03.08 bitrate=1360.4kbits/s speed=0.0405x elapsed=0:01:16.20    \nframe=  187 fps=2.4 q=30.3 size=     512KiB time=00:00:03.08 bitrate=1360.4kbits/s speed=0.0402x elapsed=0:01:16.73    \nframe=  188 fps=2.4 q=32.0 size=     512KiB time=00:00:03.10 bitrate=1353.1kbits/s speed=0.0401x elapsed=0:01:17.24    \nframe=  189 fps=2.4 q=32.1 size=     512KiB time=00:00:03.11 bitrate=1345.9kbits/s speed=0.0401x elapsed=0:01:17.78    \nframe=  191 fps=2.4 q=29.0 size=     512KiB time=00:00:03.15 bitrate=1331.6kbits/s speed=0.0402x elapsed=0:01:18.31    \nframe=  192 fps=2.4 q=30.2 size=     768KiB time=00:00:03.16 bitrate=1986.9kbits/s speed=0.0401x elapsed=0:01:18.88    \nframe=  192 fps=2.4 q=30.2 size=     768KiB time=00:00:03.16 bitrate=1986.9kbits/s speed=0.0399x elapsed=0:01:19.41    \nframe=  195 fps=2.4 q=30.3 size=     768KiB time=00:00:03.21 bitrate=1956.0kbits/s speed=0.0402x elapsed=0:01:19.92    \nframe=  197 fps=2.4 q=31.4 size=     768KiB time=00:00:03.25 bitrate=1935.9kbits/s speed=0.0404x elapsed=0:01:20.44    \nframe=  198 fps=2.4 q=29.2 size=     768KiB time=00:00:03.26 bitrate=1926.1kbits/s speed=0.0403x elapsed=0:01:20.96    \nframe=  200 fps=2.5 q=31.4 size=     768KiB time=00:00:03.30 bitrate=1906.6kbits/s speed=0.0405x elapsed=0:01:21.49    \nframe=  201 fps=2.5 q=31.5 size=     768KiB time=00:00:03.31 bitrate=1897.0kbits/s speed=0.0404x elapsed=0:01:22.01    \nframe=  203 fps=2.5 q=30.4 size=     768KiB time=00:00:03.35 bitrate=1878.2kbits/s speed=0.0406x elapsed=0:01:22.54    \nframe=  206 fps=2.5 q=28.9 size=     768KiB time=00:00:03.40 bitrate=1850.5kbits/s speed=0.0409x elapsed=0:01:23.07    \nframe=  206 fps=2.5 q=28.9 size=     768KiB time=00:00:03.40 bitrate=1850.5kbits/s speed=0.0407x elapsed=0:01:23.59    \nframe=  206 fps=2.4 q=28.9 size=     768KiB time=00:00:03.40 bitrate=1850.5kbits/s speed=0.0404x elapsed=0:01:24.11    \nframe=  209 fps=2.5 q=31.5 size=     768KiB time=00:00:03.45 bitrate=1823.7kbits/s speed=0.0408x elapsed=0:01:24.65    \nframe=  209 fps=2.5 q=31.5 size=     768KiB time=00:00:03.45 bitrate=1823.7kbits/s speed=0.0405x elapsed=0:01:25.19    \nframe=  211 fps=2.5 q=30.2 size=     768KiB time=00:00:03.46 bitrate=1814.9kbits/s speed=0.0404x elapsed=0:01:25.72    \nframe=  211 fps=2.4 q=30.2 size=     768KiB time=00:00:03.48 bitrate=1806.3kbits/s speed=0.0404x elapsed=0:01:26.26    \nframe=  214 fps=2.5 q=28.6 size=     768KiB time=00:00:03.53 bitrate=1780.7kbits/s speed=0.0407x elapsed=0:01:26.81    \nframe=  215 fps=2.5 q=30.4 size=     768KiB time=00:00:03.55 bitrate=1772.3kbits/s speed=0.0407x elapsed=0:01:27.32    \nframe=  217 fps=2.5 q=32.3 size=     768KiB time=00:00:03.58 bitrate=1755.9kbits/s speed=0.0408x elapsed=0:01:27.85    \nframe=  218 fps=2.5 q=32.2 size=     768KiB time=00:00:03.60 bitrate=1747.7kbits/s speed=0.0407x elapsed=0:01:28.38    \nframe=  220 fps=2.5 q=30.3 size=     768KiB time=00:00:03.63 bitrate=1731.7kbits/s speed=0.0409x elapsed=0:01:28.91    \nframe=  221 fps=2.5 q=32.1 size=     768KiB time=00:00:03.65 bitrate=1723.8kbits/s speed=0.0408x elapsed=0:01:29.44    \nframe=  223 fps=2.5 q=32.2 size=     768KiB time=00:00:03.68 bitrate=1708.2kbits/s speed=0.0409x elapsed=0:01:29.99    \nframe=  223 fps=2.5 q=32.2 size=     768KiB time=00:00:03.68 bitrate=1708.2kbits/s speed=0.0407x elapsed=0:01:30.51    \nframe=  224 fps=2.5 q=28.7 size=     768KiB time=00:00:03.70 bitrate=1700.5kbits/s speed=0.0406x elapsed=0:01:31.03    \nframe=  225 fps=2.5 q=30.1 size=     768KiB time=00:00:03.71 bitrate=1692.9kbits/s speed=0.0406x elapsed=0:01:31.57    \nframe=  226 fps=2.5 q=31.2 size=     768KiB time=00:00:03.73 bitrate=1685.3kbits/s speed=0.0405x elapsed=0:01:32.09    \nframe=  229 fps=2.5 q=30.3 size=     768KiB time=00:00:03.78 bitrate=1663.0kbits/s speed=0.0408x elapsed=0:01:32.62    \nframe=  229 fps=2.5 q=30.3 size=     768KiB time=00:00:03.78 bitrate=1663.0kbits/s speed=0.0406x elapsed=0:01:33.15    \nframe=  232 fps=2.5 q=28.9 size=     768KiB time=00:00:03.83 bitrate=1641.3kbits/s speed=0.0409x elapsed=0:01:33.67    \nframe=  233 fps=2.5 q=30.2 size=     768KiB time=00:00:03.85 bitrate=1634.2kbits/s speed=0.0409x elapsed=0:01:34.20    \nframe=  235 fps=2.5 q=32.2 size=     768KiB time=00:00:03.88 bitrate=1620.2kbits/s speed=0.041x elapsed=0:01:34.72    \nframe=  237 fps=2.5 q=29.2 size=     768KiB time=00:00:03.91 bitrate=1606.4kbits/s speed=0.0411x elapsed=0:01:35.23    \nframe=  238 fps=2.5 q=30.3 size=     768KiB time=00:00:03.93 bitrate=1599.6kbits/s speed=0.0411x elapsed=0:01:35.75    \nframe=  240 fps=2.5 q=32.3 size=     768KiB time=00:00:03.96 bitrate=1586.2kbits/s speed=0.0412x elapsed=0:01:36.26    \nframe=  241 fps=2.5 q=32.2 size=     768KiB time=00:00:03.98 bitrate=1579.5kbits/s speed=0.0412x elapsed=0:01:36.78    \nframe=  243 fps=2.5 q=30.1 size=     768KiB time=00:00:04.00 bitrate=1573.0kbits/s speed=0.0411x elapsed=0:01:37.29    \nframe=  243 fps=2.5 q=30.1 size=     768KiB time=00:00:04.01 bitrate=1566.4kbits/s speed=0.041x elapsed=0:01:37.84    \nframe=  246 fps=2.5 q=30.6 size=     768KiB time=00:00:04.06 bitrate=1547.2kbits/s speed=0.0413x elapsed=0:01:38.36    \nframe=  248 fps=2.5 q=31.5 size=     768KiB time=00:00:04.10 bitrate=1534.6kbits/s speed=0.0415x elapsed=0:01:38.90    \nframe=  248 fps=2.5 q=31.5 size=     768KiB time=00:00:04.10 bitrate=1534.6kbits/s speed=0.0412x elapsed=0:01:39.47    \nframe=  249 fps=2.5 q=31.6 size=     768KiB time=00:00:04.11 bitrate=1528.4kbits/s speed=0.0412x elapsed=0:01:40.00    \nframe=  251 fps=2.5 q=32.5 size=     768KiB time=00:00:04.15 bitrate=1516.1kbits/s speed=0.0413x elapsed=0:01:40.52    \nframe=  254 fps=2.5 q=29.5 size=     768KiB time=00:00:04.20 bitrate=1498.0kbits/s speed=0.0416x elapsed=0:01:41.05    \nframe=  255 fps=2.5 q=30.5 size=    1024KiB time=00:00:04.21 bitrate=1989.5kbits/s speed=0.0415x elapsed=0:01:41.58    \nframe=  255 fps=2.5 q=30.5 size=    1024KiB time=00:00:04.21 bitrate=1989.5kbits/s speed=0.0413x elapsed=0:01:42.11    \nframe=  258 fps=2.5 q=31.6 size=    1024KiB time=00:00:04.26 bitrate=1966.2kbits/s speed=0.0416x elapsed=0:01:42.64    \nframe=  259 fps=2.5 q=29.5 size=    1024KiB time=00:00:04.28 bitrate=1958.5kbits/s speed=0.0415x elapsed=0:01:43.16    \nframe=  260 fps=2.5 q=30.5 size=    1024KiB time=00:00:04.30 bitrate=1950.9kbits/s speed=0.0415x elapsed=0:01:43.68    \nframe=  263 fps=2.5 q=31.6 size=    1024KiB time=00:00:04.35 bitrate=1928.5kbits/s speed=0.0417x elapsed=0:01:44.20    \nframe=  264 fps=2.5 q=28.5 size=    1024KiB time=00:00:04.36 bitrate=1921.1kbits/s speed=0.0417x elapsed=0:01:44.72    \nframe=  267 fps=2.5 q=30.8 size=    1024KiB time=00:00:04.41 bitrate=1899.4kbits/s speed=0.042x elapsed=0:01:45.25    \nframe=  268 fps=2.5 q=28.5 size=    1024KiB time=00:00:04.43 bitrate=1892.2kbits/s speed=0.0419x elapsed=0:01:45.79    \nframe=  268 fps=2.5 q=28.5 size=    1024KiB time=00:00:04.43 bitrate=1892.2kbits/s speed=0.0417x elapsed=0:01:46.32    \nframe=  269 fps=2.5 q=29.6 size=    1024KiB time=00:00:04.45 bitrate=1885.2kbits/s speed=0.0417x elapsed=0:01:46.83    \nframe=  269 fps=2.5 q=29.6 size=    1024KiB time=00:00:04.45 bitrate=1885.2kbits/s speed=0.0414x elapsed=0:01:47.36    \nframe=  271 fps=2.5 q=30.7 size=    1024KiB time=00:00:04.48 bitrate=1871.1kbits/s speed=0.0416x elapsed=0:01:47.88    \nframe=  272 fps=2.5 q=30.7 size=    1024KiB time=00:00:04.50 bitrate=1864.2kbits/s speed=0.0415x elapsed=0:01:48.40    \nframe=  274 fps=2.5 q=30.6 size=    1024KiB time=00:00:04.53 bitrate=1850.5kbits/s speed=0.0416x elapsed=0:01:48.91    \nframe=  274 fps=2.5 q=30.6 size=    1024KiB time=00:00:04.53 bitrate=1850.5kbits/s speed=0.0414x elapsed=0:01:49.43    \nframe=  277 fps=2.5 q=31.7 size=    1024KiB time=00:00:04.58 bitrate=1830.3kbits/s speed=0.0417x elapsed=0:01:49.95    \nframe=  278 fps=2.5 q=29.2 size=    1024KiB time=00:00:04.60 bitrate=1823.7kbits/s speed=0.0416x elapsed=0:01:50.46    \nframe=  279 fps=2.5 q=30.6 size=    1024KiB time=00:00:04.61 bitrate=1817.1kbits/s speed=0.0416x elapsed=0:01:50.98    \nframe=  282 fps=2.5 q=29.1 size=    1024KiB time=00:00:04.66 bitrate=1797.6kbits/s speed=0.0419x elapsed=0:01:51.49    \nframe=  282 fps=2.5 q=29.1 size=    1024KiB time=00:00:04.66 bitrate=1797.6kbits/s speed=0.0417x elapsed=0:01:52.01    \nframe=  284 fps=2.5 q=31.6 size=    1024KiB time=00:00:04.70 bitrate=1784.9kbits/s speed=0.0418x elapsed=0:01:52.53    \nframe=  287 fps=2.5 q=28.0 size=    1024KiB time=00:00:04.73 bitrate=1772.3kbits/s speed=0.0419x elapsed=0:01:53.04    \nframe=  287 fps=2.5 q=28.0 size=    1024KiB time=00:00:04.75 bitrate=1766.1kbits/s speed=0.0418x elapsed=0:01:53.56    \nframe=  289 fps=2.5 q=31.5 size=    1024KiB time=00:00:04.78 bitrate=1753.8kbits/s speed=0.0419x elapsed=0:01:54.09    \nframe=  291 fps=2.5 q=31.4 size=    1024KiB time=00:00:04.81 bitrate=1741.7kbits/s speed=0.042x elapsed=0:01:54.60    \nframe=  292 fps=2.5 q=29.1 size=    1024KiB time=00:00:04.83 bitrate=1735.6kbits/s speed=0.042x elapsed=0:01:55.12    \nframe=  293 fps=2.5 q=30.3 size=    1024KiB time=00:00:04.85 bitrate=1729.7kbits/s speed=0.0419x elapsed=0:01:55.65    \nframe=  295 fps=2.5 q=31.3 size=    1024KiB time=00:00:04.88 bitrate=1717.9kbits/s speed=0.042x elapsed=0:01:56.17    \nframe=  296 fps=2.5 q=31.4 size=    1024KiB time=00:00:04.90 bitrate=1712.0kbits/s speed=0.042x elapsed=0:01:56.70    \nframe=  297 fps=2.5 q=29.3 size=    1024KiB time=00:00:04.91 bitrate=1706.2kbits/s speed=0.0419x elapsed=0:01:57.22    \n[mp4 @ 0000018020161100] Starting second pass: moving the moov atom to the beginning of the file\n[out#0/mp4 @ 0000018020161000] video:1209KiB audio:0KiB subtitle:0KiB other streams:0KiB global headers:2KiB muxing overhead: 0.567505%\nframe=  300 fps=2.5 q=31.5 Lsize=    1216KiB time=00:00:04.96 bitrate=2005.5kbits/s speed=0.0422x elapsed=0:01:57.68    \nx265 [info]: frame I:      2, Avg QP:34.02  kb/s: 1953.12 \nx265 [info]: frame P:     71, Avg QP:29.17  kb/s: 2616.94 \nx265 [info]: frame B:    227, Avg QP:31.36  kb/s: 1779.64 \nx265 [info]: Weighted P-Frames: Y:12.7% UV:12.7%\n\nencoded 300 frames in 117.57s (2.55 fps), 1978.96 kb/s, Avg QP:30.86\n",
  "seconds": 118.02544474601746,
  "probe_out": {}
}